<?xml version="1.0" standalone="no"?>
<!DOCTYPE svg PUBLIC "-//W3C//DTD SVG 20010904//EN"
 "http://www.w3.org/TR/2001/REC-SVG-20010904/DTD/svg10.dtd">
<svg version="1.0" xmlns="http://www.w3.org/2000/svg"
 width="7085.000000pt" height="6142.000000pt" viewBox="0 0 7085.000000 6142.000000"
 preserveAspectRatio="xMidYMid meet">

<g transform="translate(0.000000,6142.000000) scale(0.100000,-0.100000)"
fill="#000000" stroke="none">
<path d="M18590 30710 l0 -25330 16835 0 16835 0 0 25330 0 25330 -16835 0
-16835 0 0 -25330z m33430 6347 c0 -10293 -3 -19288 -7 -19990 l-6 -1277
-9181 0 c-5808 0 -9258 -4 -9389 -10 -424 -20 -679 -81 -874 -209 -183 -121
-332 -301 -447 -541 l-41 -85 -3 1677 -2 1678 -620 0 -620 0 -2 617 -3 616
-169 44 c-707 182 -1444 531 -2071 982 -281 201 -513 399 -790 673 -104 103
-194 188 -198 188 -8 0 -350 -193 -800 -454 -159 -91 -291 -166 -295 -166 -4
0 -20 24 -36 53 -15 28 -246 428 -511 887 -653 1129 -858 1491 -848 1501 4 4
184 108 398 231 728 418 697 399 692 422 -3 12 -25 100 -51 196 -131 502 -193
963 -203 1510 -12 704 60 1240 264 1961 5 18 -69 63 -497 304 -242 137 -486
281 -567 337 l-42 28 368 643 c457 798 1020 1769 1031 1781 6 6 14 5 22 -1 24
-19 1089 -633 1098 -633 5 0 43 38 85 84 173 188 535 507 800 704 321 238 601
409 980 597 439 218 791 347 1291 475 35 8 42 15 48 41 3 17 6 301 6 630 l0
599 620 0 620 0 2 2471 3 2472 4143 2104 c2279 1157 4146 2103 4148 2101 3 -3
-4109 -8048 -5596 -10948 -131 -256 -788 -1540 -1460 -2855 -672 -1314 -1226
-2394 -1231 -2399 -5 -6 -9 1072 -9 2602 l0 2613 -77 -6 c-334 -25 -569 -56
-811 -106 -1437 -296 -2687 -1126 -3514 -2334 -749 -1093 -1092 -2466 -943
-3765 130 -1124 583 -2165 1320 -3030 136 -159 473 -494 630 -624 389 -324
737 -551 1169 -762 640 -312 1325 -497 2050 -554 71 -5 140 -10 152 -10 l24 0
0 2363 0 2362 1441 2245 c793 1235 1669 2601 1948 3035 4856 7560 9562 14905
9600 14982 56 111 100 239 127 363 27 121 27 429 0 550 -65 300 -186 521 -400
735 -121 121 -228 200 -353 264 -411 207 -890 208 -1295 2 -51 -26 -2557
-1649 -5568 -3607 -3011 -1958 -5481 -3564 -5487 -3568 -10 -6 -13 1589 -13
7958 l0 7966 9975 0 9975 0 0 -18713z m-26402 15021 c193 -589 472 -1453 472
-1463 0 -3 422 -6 938 -6 515 -1 1005 -4 1087 -8 l150 -6 -225 -166 c-124 -91
-430 -313 -680 -494 -250 -180 -543 -393 -652 -472 l-196 -144 54 -162 c51
-150 381 -1169 543 -1671 39 -121 69 -221 67 -223 -4 -5 -320 222 -856 613
-406 297 -651 474 -825 596 l-80 56 -150 -111 c-737 -545 -1595 -1161 -1595
-1144 0 6 13 52 29 102 86 263 620 1913 625 1930 4 16 -11 31 -77 79 -45 33
-359 260 -696 504 -821 593 -972 705 -965 711 3 3 492 8 1086 11 l1081 5 13
40 c7 22 125 387 263 810 137 424 280 866 317 983 38 116 71 212 74 212 4 0
92 -262 198 -582z m18342 -5229 c144 -21 314 -88 449 -177 74 -49 210 -180
272 -262 283 -375 291 -911 19 -1304 -67 -98 -226 -250 -322 -310 -399 -248
-909 -225 -1278 59 -87 67 -214 207 -269 297 -349 566 -141 1297 454 1595 207
105 427 137 675 102z m-1565 -762 c-121 -498 17 -991 379 -1353 169 -168 355
-282 576 -352 256 -81 554 -86 815 -13 38 11 71 19 72 17 3 -3 -11925 -18608
-11939 -18621 -14 -13 -111 -205 4605 9055 2285 4485 4153 8156 4151 8158 -1
3 -14657 -7416 -15834 -8015 -168 -86 -300 -151 -295 -145 13 13 17488 11372
17491 11369 1 -1 -8 -46 -21 -100z m-12160 -30567 c396 -34 805 -159 1118
-344 386 -227 616 -521 709 -908 12 -54 26 -98 29 -98 3 0 9 35 12 78 12 161
78 396 154 546 88 176 234 355 383 467 162 124 417 218 671 248 81 10 9722 17
16082 13 l2617 -2 0 -4935 0 -4935 -16585 0 -16585 0 0 4935 0 4935 4793 3
c2635 1 5172 3 5637 4 506 2 893 -1 965 -7z"/>
<path d="M45511 52689 c-242 -31 -374 -89 -521 -226 -118 -111 -217 -267 -269
-424 l-21 -66 2 -979 3 -979 29 -75 c128 -339 321 -523 663 -634 351 -113 723
-23 1004 241 131 124 224 277 271 448 22 80 22 81 23 970 0 816 -1 897 -18
980 -48 241 -128 391 -279 523 -143 124 -273 184 -473 217 -96 16 -307 18
-414 4z m239 -570 c60 -13 104 -45 132 -94 l23 -40 0 -970 0 -970 -24 -45
c-64 -123 -188 -183 -280 -136 -37 20 -89 80 -112 130 -18 39 -19 90 -19 1019
0 1082 -5 1010 66 1063 34 26 107 52 149 53 11 0 40 -4 65 -10z"/>
<path d="M47765 52685 c-170 -27 -286 -68 -386 -135 -157 -107 -290 -286 -362
-487 l-26 -73 -1 -987 c-1 -658 2 -1004 9 -1035 48 -212 198 -415 418 -565
217 -148 514 -189 808 -112 225 58 413 180 558 359 161 200 212 403 205 815
l-3 180 -395 0 -395 0 0 -295 c-1 -277 -2 -298 -21 -341 -40 -87 -111 -147
-192 -162 -48 -10 -105 18 -156 74 -81 90 -76 23 -76 1104 l0 962 23 34 c12
18 42 47 66 64 38 26 52 30 125 33 90 4 138 -12 183 -60 44 -47 47 -69 47
-363 l1 -280 40 -7 c51 -9 632 -10 704 -1 l54 6 -6 211 c-11 343 -51 515 -156
674 -117 174 -283 299 -472 357 -139 42 -428 57 -594 30z"/>
<path d="M35968 52633 l-278 -3 0 -650 0 -650 -90 0 -90 0 0 -235 0 -235 90 0
90 0 0 -780 0 -780 644 0 644 0 89 31 c284 99 499 291 578 516 l25 68 0 1045
c0 1127 1 1106 -53 1240 -80 196 -244 352 -429 409 -62 19 -100 20 -505 24
-241 2 -563 2 -715 0z m817 -574 c54 -27 89 -70 105 -128 6 -23 10 -369 10
-951 l0 -915 -29 -51 c-28 -47 -79 -96 -146 -140 -24 -16 -50 -19 -152 -21
l-123 -1 0 504 0 504 130 0 130 0 0 235 0 235 -130 0 -130 0 0 381 0 381 143
-3 c129 -4 147 -7 192 -30z"/>
<path d="M38505 52630 c-5 -9 -605 -3299 -605 -3319 0 -8 112 -11 370 -11 250
0 370 3 370 10 0 15 69 548 76 588 l6 32 268 0 268 0 5 -22 c3 -13 18 -153 32
-313 15 -159 28 -291 29 -293 2 -1 194 -1 428 0 l424 3 -322 1645 c-178 905
-326 1655 -329 1667 l-5 22 -505 0 c-277 0 -507 -4 -510 -9z m559 -667 c10
-94 146 -1487 146 -1500 0 -10 -49 -13 -210 -13 l-210 0 0 23 c0 12 20 182 45
377 99 780 136 1066 141 1098 6 38 36 72 63 72 15 0 20 -10 25 -57z"/>
<path d="M40568 52633 l-198 -3 0 -1665 0 -1665 385 0 385 0 -2 1668 -3 1667
-185 0 c-102 1 -274 -1 -382 -2z"/>
<path d="M42337 52633 c-4 -3 -7 -755 -7 -1670 l0 -1663 399 0 398 0 7 46 c3
26 6 348 6 715 l0 669 200 0 200 0 0 -715 0 -715 390 0 390 0 0 1670 0 1670
-387 -3 -388 -2 -3 -614 c-2 -477 -5 -617 -15 -623 -14 -9 -348 -11 -371 -2
-14 6 -16 69 -16 619 l0 612 -122 6 c-159 9 -673 9 -681 0z"/>
<path d="M38620 48745 l0 -225 375 0 375 0 0 225 0 225 -375 0 -375 0 0 -225z"/>
<path d="M45320 48745 l0 -225 370 0 370 0 -2 223 -3 222 -367 3 -368 2 0
-225z"/>
<path d="M25996 14171 l-129 -6 -38 -115 c-21 -63 -76 -232 -122 -375 -47
-143 -88 -268 -92 -277 -7 -17 11 -18 292 -18 l300 0 135 193 c75 105 199 283
277 395 l140 202 -123 0 c-67 0 -210 2 -317 4 -107 2 -252 1 -323 -3z"/>
<path d="M21350 13028 c-129 -4 -241 -10 -247 -13 -10 -3 -13 -507 -13 -2470
l0 -2465 908 0 c1016 0 1015 0 1222 69 178 60 291 120 408 219 144 123 265
368 318 649 28 150 30 509 5 815 -12 142 -29 283 -37 315 -68 264 -313 486
-588 534 l-68 11 90 48 c246 130 398 279 454 447 71 210 108 773 65 987 -55
270 -178 501 -336 633 -80 66 -235 144 -355 178 -178 50 -262 55 -954 53 -350
0 -743 -5 -872 -10z m1290 -847 c52 -16 140 -72 164 -104 20 -27 20 -41 21
-380 0 -393 -2 -412 -64 -493 -76 -100 -191 -143 -412 -151 l-136 -6 -7 263
c-3 144 -3 401 0 571 l7 308 51 4 c88 8 339 -1 376 -12z m76 -1963 c58 -31
122 -114 144 -185 18 -59 20 -93 20 -382 0 -455 -16 -537 -130 -650 -111 -111
-315 -167 -500 -138 l-45 7 1 593 c1 325 2 634 3 685 l1 94 238 -4 c199 -3
242 -6 268 -20z"/>
<path d="M29240 13025 c-228 -28 -366 -63 -485 -122 -191 -96 -355 -246 -488
-446 -73 -110 -183 -325 -210 -412 l-22 -70 1 -1430 0 -1430 27 -95 c50 -184
123 -330 243 -489 267 -356 680 -551 1162 -551 518 0 959 214 1236 600 121
169 194 348 231 565 30 182 44 536 29 753 l-7 92 -568 0 -568 0 -3 -442 c-3
-442 -3 -443 -27 -503 -34 -84 -134 -184 -214 -213 -102 -39 -200 -23 -281 44
-54 46 -105 123 -126 191 -20 64 -20 90 -20 1497 l0 1431 24 50 c27 60 80 109
156 144 48 23 68 26 160 26 128 0 185 -22 254 -95 74 -79 76 -93 76 -544 0
-215 3 -400 6 -411 5 -20 12 -20 569 -17 l564 2 7 58 c10 76 -12 540 -31 672
-35 234 -86 386 -183 540 -80 127 -160 218 -269 308 -212 175 -428 266 -713
302 -112 13 -399 11 -530 -5z"/>
<path d="M44675 13034 c-16 -2 -73 -9 -125 -15 -211 -24 -411 -93 -564 -193
-199 -129 -419 -415 -525 -681 -37 -94 -45 -125 -52 -215 -4 -58 -8 -690 -8
-1405 0 -1402 -2 -1366 53 -1528 33 -99 133 -298 203 -407 150 -230 409 -413
753 -532 580 -199 1285 38 1643 552 156 225 217 369 248 580 14 98 13 2476 -2
2605 -33 306 -117 533 -272 741 -64 84 -235 239 -332 300 -224 139 -498 206
-833 203 -86 -1 -170 -4 -187 -5z m325 -845 c74 -35 110 -67 145 -131 l30 -53
3 -1400 c2 -983 -1 -1416 -9 -1453 -25 -123 -110 -242 -211 -293 -53 -27 -168
-37 -222 -19 -61 20 -151 112 -193 197 l-37 74 -8 196 c-5 107 -7 752 -6 1432
l3 1236 33 67 c62 127 162 180 327 175 71 -2 102 -8 145 -28z"/>
<path d="M25245 13008 c-11 -35 -902 -4974 -898 -4978 7 -8 1070 -6 1078 2 4
3 11 39 16 80 88 691 108 840 113 846 4 3 191 8 415 10 l409 4 6 -28 c10 -52
44 -374 67 -645 l23 -267 226 -7 c345 -11 1020 -3 1020 12 0 10 -572 2962
-898 4633 l-67 345 -753 3 c-597 2 -753 0 -757 -10z m828 -910 c13 -11 21 -63
42 -283 14 -148 41 -425 60 -615 76 -758 137 -1451 129 -1460 -6 -5 -647 0
-653 6 -7 6 276 2250 294 2331 3 12 13 24 23 26 35 9 89 7 105 -5z"/>
<path d="M47301 11743 c-445 -2452 -670 -3707 -666 -3711 8 -8 780 -14 925 -7
l156 7 56 460 c31 253 60 463 63 466 4 4 193 9 420 10 l413 4 6 -29 c7 -34 37
-329 67 -663 12 -135 24 -247 26 -250 3 -3 283 -6 624 -8 l620 -3 -6 23 c-2
13 -48 248 -100 523 -53 275 -235 1218 -405 2095 -170 877 -342 1767 -382
1977 l-73 383 -756 0 -756 0 -232 -1277z m1073 320 c10 -82 226 -2291 226
-2315 0 -4 -151 -8 -335 -8 -184 0 -335 2 -335 4 0 21 238 1871 282 2193 l22
162 40 4 c101 9 94 12 100 -40z"/>
<path d="M36470 10545 l0 -2465 539 0 540 0 3 663 3 662 34 60 c49 88 233 366
238 361 6 -6 157 -512 364 -1218 l154 -528 604 0 c478 0 602 3 599 13 -3 6
-114 343 -246 747 -133 404 -349 1064 -482 1465 l-240 730 179 365 c98 201
311 635 474 965 162 330 298 610 301 623 l7 22 -605 0 c-566 0 -606 -1 -615
-17 -5 -10 -135 -353 -289 -763 -347 -924 -465 -1230 -474 -1230 -5 0 -8 452
-8 1005 l0 1005 -540 0 -540 0 0 -2465z"/>
<path d="M31470 10510 l0 -2490 575 0 575 0 0 1070 0 1070 325 0 325 0 0 -452
c0 -249 0 -728 0 -1064 l0 -612 202 -7 c112 -3 365 -5 563 -3 l360 3 3 2488 2
2487 -562 -2 -563 -3 -3 -922 -2 -923 -325 0 -325 0 0 925 0 925 -575 0 -575
0 0 -2490z"/>
<path d="M39940 10510 l0 -2490 483 0 c266 0 525 3 575 6 l92 7 0 1063 0 1064
324 0 324 0 7 -357 c4 -197 5 -676 1 -1064 l-7 -706 173 -6 c222 -9 589 -9
801 0 l167 6 0 2484 0 2483 -565 0 -565 0 0 -833 c0 -459 -3 -875 -6 -925 l-7
-92 -323 0 -324 0 0 925 0 925 -575 0 -575 0 0 -2490z"/>
</g>
</svg>
